<mxfile host="app.diagrams.net" agent="Mozilla/5.0 (Windows NT 10.0; Win64; x64) AppleWebKit/537.36 (KHTML, like Gecko) Chrome/133.0.0.0 Safari/537.36" version="26.0.16">
  <diagram name="Halaman-1" id="bUuWbq4Zh08xFYO1OmWF">
    <mxGraphModel dx="1050" dy="699" grid="1" gridSize="10" guides="1" tooltips="1" connect="1" arrows="1" fold="1" page="1" pageScale="1" pageWidth="827" pageHeight="1169" math="0" shadow="0">
      <root>
        <mxCell id="0" />
        <mxCell id="1" parent="0" />
        <mxCell id="Y-FF0z4qI0XamJLsBe11-23" style="edgeStyle=orthogonalEdgeStyle;rounded=0;orthogonalLoop=1;jettySize=auto;html=1;" edge="1" parent="1" source="Y-FF0z4qI0XamJLsBe11-1" target="Y-FF0z4qI0XamJLsBe11-18">
          <mxGeometry relative="1" as="geometry">
            <Array as="points">
              <mxPoint x="680" y="210" />
              <mxPoint x="680" y="80" />
            </Array>
          </mxGeometry>
        </mxCell>
        <mxCell id="Y-FF0z4qI0XamJLsBe11-24" style="edgeStyle=orthogonalEdgeStyle;rounded=0;orthogonalLoop=1;jettySize=auto;html=1;" edge="1" parent="1" source="Y-FF0z4qI0XamJLsBe11-1" target="Y-FF0z4qI0XamJLsBe11-15">
          <mxGeometry relative="1" as="geometry">
            <Array as="points">
              <mxPoint x="680" y="210" />
              <mxPoint x="680" y="380" />
            </Array>
          </mxGeometry>
        </mxCell>
        <mxCell id="Y-FF0z4qI0XamJLsBe11-25" style="edgeStyle=orthogonalEdgeStyle;rounded=0;orthogonalLoop=1;jettySize=auto;html=1;" edge="1" parent="1" source="Y-FF0z4qI0XamJLsBe11-1" target="Y-FF0z4qI0XamJLsBe11-17">
          <mxGeometry relative="1" as="geometry" />
        </mxCell>
        <mxCell id="Y-FF0z4qI0XamJLsBe11-26" style="edgeStyle=orthogonalEdgeStyle;rounded=0;orthogonalLoop=1;jettySize=auto;html=1;entryX=1;entryY=0.5;entryDx=0;entryDy=0;" edge="1" parent="1" source="Y-FF0z4qI0XamJLsBe11-1" target="Y-FF0z4qI0XamJLsBe11-4">
          <mxGeometry relative="1" as="geometry" />
        </mxCell>
        <mxCell id="Y-FF0z4qI0XamJLsBe11-1" value="Admin" style="shape=umlActor;verticalLabelPosition=bottom;verticalAlign=top;html=1;outlineConnect=0;" vertex="1" parent="1">
          <mxGeometry x="700" y="180" width="30" height="60" as="geometry" />
        </mxCell>
        <mxCell id="Y-FF0z4qI0XamJLsBe11-28" style="edgeStyle=orthogonalEdgeStyle;rounded=0;orthogonalLoop=1;jettySize=auto;html=1;entryX=0;entryY=0.5;entryDx=0;entryDy=0;" edge="1" parent="1" source="Y-FF0z4qI0XamJLsBe11-2" target="Y-FF0z4qI0XamJLsBe11-19">
          <mxGeometry relative="1" as="geometry">
            <Array as="points">
              <mxPoint x="130" y="220" />
              <mxPoint x="130" y="80" />
            </Array>
          </mxGeometry>
        </mxCell>
        <mxCell id="Y-FF0z4qI0XamJLsBe11-29" style="edgeStyle=orthogonalEdgeStyle;rounded=0;orthogonalLoop=1;jettySize=auto;html=1;" edge="1" parent="1" source="Y-FF0z4qI0XamJLsBe11-2" target="Y-FF0z4qI0XamJLsBe11-20">
          <mxGeometry relative="1" as="geometry" />
        </mxCell>
        <mxCell id="Y-FF0z4qI0XamJLsBe11-2" value="User" style="shape=umlActor;verticalLabelPosition=bottom;verticalAlign=top;html=1;outlineConnect=0;" vertex="1" parent="1">
          <mxGeometry x="80" y="190" width="30" height="60" as="geometry" />
        </mxCell>
        <mxCell id="Y-FF0z4qI0XamJLsBe11-4" value="System Setting" style="ellipse;whiteSpace=wrap;html=1;" vertex="1" parent="1">
          <mxGeometry x="414" y="260" width="120" height="80" as="geometry" />
        </mxCell>
        <mxCell id="Y-FF0z4qI0XamJLsBe11-15" value="Manage content" style="ellipse;whiteSpace=wrap;html=1;" vertex="1" parent="1">
          <mxGeometry x="414" y="340" width="120" height="80" as="geometry" />
        </mxCell>
        <mxCell id="Y-FF0z4qI0XamJLsBe11-16" value="Record Transaksi&lt;span style=&quot;color: rgba(0, 0, 0, 0); font-family: monospace; font-size: 0px; text-align: start; text-wrap-mode: nowrap;&quot;&gt;%3CmxGraphModel%3E%3Croot%3E%3CmxCell%20id%3D%220%22%2F%3E%3CmxCell%20id%3D%221%22%20parent%3D%220%22%2F%3E%3CmxCell%20id%3D%222%22%20value%3D%22%22%20style%3D%22ellipse%3BwhiteSpace%3Dwrap%3Bhtml%3D1%3B%22%20vertex%3D%221%22%20parent%3D%221%22%3E%3CmxGeometry%20x%3D%22350%22%20y%3D%22280%22%20width%3D%22120%22%20height%3D%2280%22%20as%3D%22geometry%22%2F%3E%3C%2FmxCell%3E%3C%2Froot%3E%3C%2FmxGraphModel%3E&lt;/span&gt;" style="ellipse;whiteSpace=wrap;html=1;" vertex="1" parent="1">
          <mxGeometry x="270" y="340" width="120" height="80" as="geometry" />
        </mxCell>
        <mxCell id="Y-FF0z4qI0XamJLsBe11-17" value="Manage transaksi" style="ellipse;whiteSpace=wrap;html=1;" vertex="1" parent="1">
          <mxGeometry x="414" y="120" width="120" height="80" as="geometry" />
        </mxCell>
        <mxCell id="Y-FF0z4qI0XamJLsBe11-18" value="Manage user" style="ellipse;whiteSpace=wrap;html=1;" vertex="1" parent="1">
          <mxGeometry x="400" y="40" width="120" height="80" as="geometry" />
        </mxCell>
        <mxCell id="Y-FF0z4qI0XamJLsBe11-19" value="Melihat laporan" style="ellipse;whiteSpace=wrap;html=1;" vertex="1" parent="1">
          <mxGeometry x="280" y="40" width="120" height="80" as="geometry" />
        </mxCell>
        <mxCell id="Y-FF0z4qI0XamJLsBe11-20" value="Manage budget" style="ellipse;whiteSpace=wrap;html=1;" vertex="1" parent="1">
          <mxGeometry x="280" y="120" width="120" height="80" as="geometry" />
        </mxCell>
        <mxCell id="Y-FF0z4qI0XamJLsBe11-21" value="Security settings" style="ellipse;whiteSpace=wrap;html=1;" vertex="1" parent="1">
          <mxGeometry x="260" y="260" width="120" height="80" as="geometry" />
        </mxCell>
        <mxCell id="Y-FF0z4qI0XamJLsBe11-27" style="edgeStyle=orthogonalEdgeStyle;rounded=0;orthogonalLoop=1;jettySize=auto;html=1;entryX=-0.007;entryY=0.588;entryDx=0;entryDy=0;entryPerimeter=0;" edge="1" parent="1" source="Y-FF0z4qI0XamJLsBe11-2" target="Y-FF0z4qI0XamJLsBe11-16">
          <mxGeometry relative="1" as="geometry">
            <Array as="points">
              <mxPoint x="130" y="220" />
              <mxPoint x="130" y="387" />
            </Array>
          </mxGeometry>
        </mxCell>
        <mxCell id="Y-FF0z4qI0XamJLsBe11-30" style="edgeStyle=orthogonalEdgeStyle;rounded=0;orthogonalLoop=1;jettySize=auto;html=1;entryX=-0.01;entryY=0.658;entryDx=0;entryDy=0;entryPerimeter=0;" edge="1" parent="1" source="Y-FF0z4qI0XamJLsBe11-2" target="Y-FF0z4qI0XamJLsBe11-21">
          <mxGeometry relative="1" as="geometry">
            <Array as="points">
              <mxPoint x="190" y="220" />
              <mxPoint x="190" y="310" />
              <mxPoint x="259" y="310" />
            </Array>
          </mxGeometry>
        </mxCell>
        <mxCell id="Y-FF0z4qI0XamJLsBe11-40" value="lihat laporan dan kesimpulan,&lt;div&gt;lihat dan unduh laporan&lt;/div&gt;" style="ellipse;whiteSpace=wrap;html=1;" vertex="1" parent="1">
          <mxGeometry x="380" y="880" width="120" height="80" as="geometry" />
        </mxCell>
        <mxCell id="Y-FF0z4qI0XamJLsBe11-42" value="lihat hasil anomali" style="ellipse;whiteSpace=wrap;html=1;" vertex="1" parent="1">
          <mxGeometry x="370" y="570" width="120" height="80" as="geometry" />
        </mxCell>
        <mxCell id="Y-FF0z4qI0XamJLsBe11-43" value="Input Data transaks&lt;span style=&quot;background-color: transparent; color: light-dark(rgb(0, 0, 0), rgb(255, 255, 255));&quot;&gt;i&lt;/span&gt;&lt;div&gt;&lt;span style=&quot;background-color: transparent; color: light-dark(rgb(0, 0, 0), rgb(255, 255, 255));&quot;&gt;kelola data tramsaksi&lt;/span&gt;&lt;/div&gt;" style="ellipse;whiteSpace=wrap;html=1;" vertex="1" parent="1">
          <mxGeometry x="370" y="470" width="120" height="80" as="geometry" />
        </mxCell>
        <mxCell id="Y-FF0z4qI0XamJLsBe11-45" value="Melihat prediksi anomali dan validasi&amp;nbsp;&lt;div&gt;anomali&lt;/div&gt;" style="ellipse;whiteSpace=wrap;html=1;" vertex="1" parent="1">
          <mxGeometry x="380" y="670" width="120" height="80" as="geometry" />
        </mxCell>
        <mxCell id="Y-FF0z4qI0XamJLsBe11-64" value="Kelola parameter&amp;nbsp;&lt;div&gt;machine learning&lt;/div&gt;" style="ellipse;whiteSpace=wrap;html=1;" vertex="1" parent="1">
          <mxGeometry x="380" y="780" width="120" height="80" as="geometry" />
        </mxCell>
        <mxCell id="Y-FF0z4qI0XamJLsBe11-78" value="Kelola data user&amp;nbsp;" style="ellipse;whiteSpace=wrap;html=1;" vertex="1" parent="1">
          <mxGeometry x="380" y="980" width="120" height="80" as="geometry" />
        </mxCell>
        <mxCell id="Y-FF0z4qI0XamJLsBe11-83" style="edgeStyle=orthogonalEdgeStyle;rounded=0;orthogonalLoop=1;jettySize=auto;html=1;entryX=1;entryY=0.5;entryDx=0;entryDy=0;" edge="1" parent="1" source="Y-FF0z4qI0XamJLsBe11-79" target="Y-FF0z4qI0XamJLsBe11-43">
          <mxGeometry relative="1" as="geometry" />
        </mxCell>
        <mxCell id="Y-FF0z4qI0XamJLsBe11-84" style="edgeStyle=orthogonalEdgeStyle;rounded=0;orthogonalLoop=1;jettySize=auto;html=1;" edge="1" parent="1" source="Y-FF0z4qI0XamJLsBe11-79" target="Y-FF0z4qI0XamJLsBe11-42">
          <mxGeometry relative="1" as="geometry">
            <Array as="points">
              <mxPoint x="795" y="610" />
            </Array>
          </mxGeometry>
        </mxCell>
        <mxCell id="Y-FF0z4qI0XamJLsBe11-85" style="edgeStyle=orthogonalEdgeStyle;rounded=0;orthogonalLoop=1;jettySize=auto;html=1;" edge="1" parent="1">
          <mxGeometry relative="1" as="geometry">
            <mxPoint x="796.91" y="550" as="sourcePoint" />
            <mxPoint x="500.0047501931112" y="710" as="targetPoint" />
            <Array as="points">
              <mxPoint x="796.91" y="710" />
            </Array>
          </mxGeometry>
        </mxCell>
        <mxCell id="Y-FF0z4qI0XamJLsBe11-92" style="edgeStyle=orthogonalEdgeStyle;rounded=0;orthogonalLoop=1;jettySize=auto;html=1;entryX=1;entryY=0.5;entryDx=0;entryDy=0;" edge="1" parent="1" source="Y-FF0z4qI0XamJLsBe11-79" target="Y-FF0z4qI0XamJLsBe11-40">
          <mxGeometry relative="1" as="geometry">
            <Array as="points">
              <mxPoint x="795" y="920" />
            </Array>
          </mxGeometry>
        </mxCell>
        <mxCell id="Y-FF0z4qI0XamJLsBe11-79" value="ADMIN&lt;div&gt;&lt;br&gt;&lt;/div&gt;" style="shape=umlActor;verticalLabelPosition=bottom;verticalAlign=top;html=1;outlineConnect=0;" vertex="1" parent="1">
          <mxGeometry x="780" y="480" width="30" height="60" as="geometry" />
        </mxCell>
        <mxCell id="Y-FF0z4qI0XamJLsBe11-96" style="edgeStyle=orthogonalEdgeStyle;rounded=0;orthogonalLoop=1;jettySize=auto;html=1;" edge="1" parent="1" source="Y-FF0z4qI0XamJLsBe11-80" target="Y-FF0z4qI0XamJLsBe11-43">
          <mxGeometry relative="1" as="geometry" />
        </mxCell>
        <mxCell id="Y-FF0z4qI0XamJLsBe11-97" style="edgeStyle=orthogonalEdgeStyle;rounded=0;orthogonalLoop=1;jettySize=auto;html=1;entryX=0;entryY=0.5;entryDx=0;entryDy=0;" edge="1" parent="1" source="Y-FF0z4qI0XamJLsBe11-80" target="Y-FF0z4qI0XamJLsBe11-42">
          <mxGeometry relative="1" as="geometry">
            <Array as="points">
              <mxPoint x="115" y="610" />
            </Array>
          </mxGeometry>
        </mxCell>
        <mxCell id="Y-FF0z4qI0XamJLsBe11-99" style="edgeStyle=orthogonalEdgeStyle;rounded=0;orthogonalLoop=1;jettySize=auto;html=1;entryX=0;entryY=0.5;entryDx=0;entryDy=0;" edge="1" parent="1" source="Y-FF0z4qI0XamJLsBe11-80" target="Y-FF0z4qI0XamJLsBe11-40">
          <mxGeometry relative="1" as="geometry">
            <Array as="points">
              <mxPoint x="115" y="920" />
            </Array>
          </mxGeometry>
        </mxCell>
        <mxCell id="Y-FF0z4qI0XamJLsBe11-80" value="USER&lt;div&gt;&lt;br&gt;&lt;/div&gt;" style="shape=umlActor;verticalLabelPosition=bottom;verticalAlign=top;html=1;outlineConnect=0;" vertex="1" parent="1">
          <mxGeometry x="100" y="480" width="30" height="60" as="geometry" />
        </mxCell>
        <mxCell id="Y-FF0z4qI0XamJLsBe11-91" style="edgeStyle=orthogonalEdgeStyle;rounded=0;orthogonalLoop=1;jettySize=auto;html=1;entryX=1.017;entryY=0.597;entryDx=0;entryDy=0;entryPerimeter=0;" edge="1" parent="1" source="Y-FF0z4qI0XamJLsBe11-79" target="Y-FF0z4qI0XamJLsBe11-64">
          <mxGeometry relative="1" as="geometry">
            <Array as="points">
              <mxPoint x="795" y="820" />
              <mxPoint x="502" y="820" />
            </Array>
          </mxGeometry>
        </mxCell>
        <mxCell id="Y-FF0z4qI0XamJLsBe11-93" style="edgeStyle=orthogonalEdgeStyle;rounded=0;orthogonalLoop=1;jettySize=auto;html=1;entryX=1;entryY=0.625;entryDx=0;entryDy=0;entryPerimeter=0;" edge="1" parent="1" source="Y-FF0z4qI0XamJLsBe11-79" target="Y-FF0z4qI0XamJLsBe11-78">
          <mxGeometry relative="1" as="geometry">
            <Array as="points">
              <mxPoint x="795" y="1030" />
            </Array>
          </mxGeometry>
        </mxCell>
        <mxCell id="Y-FF0z4qI0XamJLsBe11-98" style="edgeStyle=orthogonalEdgeStyle;rounded=0;orthogonalLoop=1;jettySize=auto;html=1;entryX=0;entryY=0.625;entryDx=0;entryDy=0;entryPerimeter=0;" edge="1" parent="1" source="Y-FF0z4qI0XamJLsBe11-80" target="Y-FF0z4qI0XamJLsBe11-45">
          <mxGeometry relative="1" as="geometry">
            <Array as="points">
              <mxPoint x="115" y="720" />
            </Array>
          </mxGeometry>
        </mxCell>
      </root>
    </mxGraphModel>
  </diagram>
</mxfile>
